# xmcd CD database file
#
# Track frame offsets:
#	150
#	9840
#	22992
#	37500
#	48315
#	60447
#	71080
#	84047
#	98335
#	109785
#	121767
#	132305
#	145607
#	157995
#	172820
#	186145
#	197982
#	210622
#	221715
#	233162
#
# Disc length: 3247 seconds
#
# Revision: 1
# Processed by: cddbd v1.5.2PL0 Copyright (c) Steve Scherf et al.
# Submitted via: CDex 1.70beta2
#
DISCID=f20cad14
DTITLE=Various Artist - Country Classics Vol 2
DYEAR=2004
DGENRE=Country
TTITLE0=Ned Miller - From a  Jack to a King
TTITLE1=Kenny Rogers - Ruby donÂ't take your Love to Town
TTITLE2=Jeannie C. Riley - Harper Valley PTA
TTITLE3=Conway Twitty - Big Train
TTITLE4=Hank Williams - Never again
TTITLE5=Patsy Cline - Honky Tonk Merry go round
TTITLE6=Donna - Fargo - Daddy
TTITLE7=Ed Bruce - Behind closed doors
TTITLE8=Dave Dudley - Cowboy Boots
TTITLE9=Webb Pierce - Memory #1
TTITLE10=Faron Young - If you ainÂ't Lovin
TTITLE11=Billie Jo Spearce - Fever
TTITLE12=Randy Travis - Dreaming
TTITLE13=Frankie Laine - Jezebel
TTITLE14=Freddy Fender - Just because
TTITLE15=Barbara Fairchild - You canÂ't put the City - In the Country Girl
TTITLE16=Ed Bruce - Set me free
TTITLE17=Waylon Yennings - Big Mamou
TTITLE18=Jerry Wallace - The She goes
TTITLE19=Kenny Rogers Tickt to nowhere
EXTD=YEAR: 2004
EXTT0=
EXTT1=
EXTT2=
EXTT3=
EXTT4=
EXTT5=
EXTT6=
EXTT7=
EXTT8=
EXTT9=
EXTT10=
EXTT11=
EXTT12=
EXTT13=
EXTT14=
EXTT15=
EXTT16=
EXTT17=
EXTT18=
EXTT19=
PLAYORDER=
